<svg xmlns:svg="http://www.w3.org/2000/svg" xmlns="http://www.w3.org/2000/svg" space="preserve" width="6.441782in" height="6.4147835in" version="1.1" style="clip-rule:evenodd;fill-rule:evenodd;image-rendering:optimizeQuality;shape-rendering:geometricPrecision;text-rendering:geometricPrecision" viewBox="0 0 6442 6414.8385" id="svg3436">
  <namedview pagecolor="#ffffff" bordercolor="#666666" borderopacity="1" objecttolerance="10" gridtolerance="10" guidetolerance="10" id="namedview3451" showgrid="false" fit-margin-top="0" fit-margin-left="0" fit-margin-right="0" fit-margin-bottom="0"/>
  <defs id="defs3438">
    <style type="text/css" id="style3440"><![CDATA[
    .fil0 {fill:#0F3151}
    .fil1 {fill:#B22025}
    .fil2 {fill:#D0C85C}
   ]]></style>
  </defs>
  <g id="Layer_x0020_1" transform="translate(-913,-2639.1472)">
    <g id="_2707087027088">
      <path class="fil0" d="m 2993,3635 990,0 c 19,78 34,144 45,193 30,131 59,267 83,404 l -967,0 c -164,0 -299,134 -299,298 l 0,873 c -188,-24 -377,-53 -564,-90 l 0,-966 c 0,-391 320,-712 712,-712 z m 1163,597 c 25,-137 54,-273 84,-404 11,-49 26,-115 45,-193 l 990,0 c 392,0 712,321 712,712 l 0,966 c -188,37 -377,66 -565,90 l 0,-873 c 0,-164 -134,-298 -298,-298 l -968,0 z m 1266,1216 c 188,24 377,54 565,91 l 0,896 c 0,392 -320,713 -712,713 l -989,0 c -50,-233 -93,-465 -129,-695 5,32 10,65 16,97 l 951,0 c 164,0 298,-134 298,-298 l 0,-804 z M 4111,6453 c -37,230 -80,462 -129,695 l -989,0 c -392,0 -712,-321 -712,-713 l 0,-896 c 188,-37 377,-67 564,-91 l 0,804 c 0,164 135,298 299,298 l 951,0 c 5,-32 11,-65 16,-97 z" id="path3445" style="fill:#0f3151"/>
      <path class="fil1" d="m 4134,2639 1038,0 c -71,85 -520,1525 -538,2275 1136,-49 2067,-293 2721,-649 l 0,2314 c -640,-348 -1607,-589 -2713,-645 144,1154 449,2288 841,3120 l -1349,0 -1349,0 c 392,-832 697,-1966 841,-3120 -1106,56 -2073,297 -2713,645 l 0,-2314 c 653,356 1585,600 2721,649 -18,-750 -467,-2190 -538,-2275 l 1038,0 z m -2668,2462 0,647 c 507,-165 1052,-267 1575,-323 -528,-54 -1068,-156 -1575,-324 z m 2668,1201 c -107,727 -279,1490 -528,2199 l 1056,0 C 4413,7792 4241,7029 4134,6302 Z m 1093,-877 c 523,56 1068,158 1574,323 l 0,-647 c -506,168 -1046,270 -1574,324 z M 4134,4365 c 29,-183 67,-365 106,-537 29,-129 87,-375 159,-636 l -530,0 c 72,261 130,507 159,636 39,172 77,354 106,537 z" id="path3447" style="fill:#b22025"/>
      <path class="fil2" d="m 1466,5101 0,647 c 507,-165 1052,-267 1575,-323 -528,-54 -1068,-156 -1575,-324 z m 2668,1201 c -107,727 -279,1490 -528,2199 l 1056,0 C 4413,7792 4241,7029 4134,6302 Z m 1093,-877 c 523,56 1068,158 1574,323 l 0,-647 c -506,168 -1046,270 -1574,324 z M 4134,4365 c 29,-183 67,-365 106,-537 29,-129 87,-375 159,-636 l -530,0 c 72,261 130,507 159,636 39,172 77,354 106,537 z" id="path3449" style="fill:#d0c85c"/>
    </g>
  </g>
</svg>